# xmcd
#
# Track frame offsets:
#	150
#	17265
#	37172
#	58112
#	73812
#	90132
#	104022
#	122382
#	140019
#	170439
#	192259
#
# Disc length: 2842 seconds
#
# Revision: 1
# Processed by: cddbd v1.4PL0 Copyright (c) Steve Scherf et al.
# Submitted via: EasyCDDAExtractor 5.0.7
#
DISCID=930b180b
DTITLE=Brothers In Arms Band - Dirt On My Bones
DYEAR=1900
DGENRE=
TTITLE0=Bad Decision
TTITLE1=I'm A Man
TTITLE2=Dirt On My Bones
TTITLE3=Fineline
TTITLE4=Teaching And Learning
TTITLE5=No Pity
TTITLE6=Stumble Feet
TTITLE7=YOU and ME
TTITLE8=Victimized
TTITLE9=Walk Around The World
TTITLE10=Fade Away
EXTD=
EXTT0=
EXTT1=
EXTT2=
EXTT3=
EXTT4=
EXTT5=
EXTT6=
EXTT7=
EXTT8=
EXTT9=
EXTT10=
PLAYORDER=
